<svg xmlns="http://www.w3.org/2000/svg" version="1.1" xmlns:xlink="http://www.w3.org/1999/xlink" width="1000" height="1000"><g clip-path="url(#SvgjsClipPath1396)"><rect width="1000" height="1000" fill="#ffffff"></rect><g transform="matrix(4.5,0,0,4.5,50,50)"><svg xmlns="http://www.w3.org/2000/svg" version="1.1" xmlns:xlink="http://www.w3.org/1999/xlink" width="200" height="200"><svg xmlns="http://www.w3.org/2000/svg" version="1.1" xmlns:xlink="http://www.w3.org/1999/xlink" viewBox="0 0 200 200"><rect width="200" height="200" fill="url('#gradient')"></rect><defs><linearGradient id="gradient" gradientTransform="rotate(45 0.5 0.5)"><stop offset="0%" stop-color="#ffffff"></stop><stop offset="100%" stop-color="#ffffff"></stop></linearGradient><clipPath id="SvgjsClipPath1396"><rect width="1000" height="1000" x="0" y="0" rx="400" ry="400"></rect></clipPath></defs><g><g fill="#000000" transform="matrix(6.9006971340046475,0,0,6.9006971340046475,5.596818670812823,149.0633324106011)" stroke="#000000" stroke-width="1"><path d="M12.95-14.22L12.95 0L9.54 0L4.50-8.85L4.50 0L1.07 0L1.07-14.22L4.50-14.22L9.53-5.37L9.53-14.22L12.95-14.22ZM19.79 0L15.12 0L15.12-14.22L19.70-14.22Q21.58-14.22 23.09-13.36Q24.59-12.51 25.43-10.95Q26.28-9.39 26.29-7.46L26.29-7.46L26.29-6.81Q26.29-4.85 25.46-3.31Q24.64-1.76 23.14-0.88Q21.64-0.01 19.79 0L19.79 0ZM19.70-11.57L18.54-11.57L18.54-2.64L19.74-2.64Q21.21-2.64 22.00-3.69Q22.79-4.74 22.79-6.81L22.79-6.81L22.79-7.42Q22.79-9.48 22.00-10.53Q21.21-11.57 19.70-11.57L19.70-11.57Z"></path></g></g></svg></svg></g></g></svg>